<svg width="89" height="83" viewBox="0 0 89 83" fill="none" xmlns="http://www.w3.org/2000/svg">
<path d="M88.497 41.5801H47.2664M26.6523 5.87305L47.2676 41.5797L26.6523 77.2864" stroke="#FF9900" stroke-width="2"/>
<circle cx="46.584" cy="41.5801" r="33.5098" stroke="#FF9900" stroke-width="2" stroke-dasharray="4 4"/>
<path d="M64.5941 72.6673C62.0432 74.1401 61.1692 77.4019 62.642 79.9528C64.1147 82.5037 67.3765 83.3777 69.9274 81.9049C72.4783 80.4321 73.3523 77.1703 71.8796 74.6194C70.4068 72.0685 67.145 71.1945 64.5941 72.6673ZM43.9788 36.9606C41.4279 38.4334 40.5539 41.6952 42.0267 44.2461C43.4995 46.797 46.7613 47.671 49.3122 46.1982C51.8631 44.7254 52.7371 41.4636 51.2643 38.9127C49.7915 36.3618 46.5297 35.4878 43.9788 36.9606ZM64.5951 1.25473C62.0442 2.72749 61.1702 5.98931 62.6429 8.5402C64.1157 11.0911 67.3775 11.9651 69.9284 10.4923C72.4793 9.01958 73.3533 5.75776 71.8805 3.20687C70.4078 0.655975 67.1459 -0.218026 64.5951 1.25473ZM46.6464 41.5802L46.6464 42.5802L47.2238 42.5802L47.5125 42.0802L46.6464 41.5802ZM2.74923 36.9614C0.198339 38.4342 -0.675662 41.696 0.797097 44.2469C2.26986 46.7978 5.53167 47.6718 8.08257 46.199C10.6335 44.7263 11.5075 41.4645 10.0347 38.9136C8.56194 36.3627 5.30013 35.4887 2.74923 36.9614ZM68.1268 76.7861L47.5115 41.0794L45.7795 42.0794L66.3947 77.7861L68.1268 76.7861ZM66.3957 5.37354L45.7804 41.0802L47.5125 42.0802L68.1277 6.37354L66.3957 5.37354ZM5.4159 42.5802L46.6464 42.5802L46.6464 40.5802L5.4159 40.5802L5.4159 42.5802Z" fill="#FF9900"/>
</svg>
