<svg width="945" height="860" viewBox="0 0 945 860" fill="none" xmlns="http://www.w3.org/2000/svg">
    <path fill-rule="evenodd" clip-rule="evenodd"
        d="M472.123 386.932L443.224 358.033L414.325 386.932L443.224 415.831L472.123 386.932ZM437.757 393.18C440.776 396.2 445.672 396.2 448.691 393.18C451.711 390.161 451.711 385.265 448.691 382.246C445.672 379.226 440.776 379.226 437.757 382.246C434.737 385.265 434.737 390.161 437.757 393.18Z"
        fill="#FF9900" />
    <path
        d="M679.581 143.631C677.449 145.764 677.449 149.222 679.581 151.355C681.714 153.487 685.172 153.487 687.305 151.355C689.438 149.222 689.438 145.764 687.305 143.631C685.172 141.498 681.714 141.498 679.581 143.631ZM682.719 146.769L466.711 362.777L468.159 364.225L684.167 148.217L682.719 146.769Z"
        fill="#FF9900" />
    <path d="M452.592 348.66L481.491 377.559" stroke="#FF9900" stroke-width="2.09545" />
    <circle opacity="0.2" cx="29.2723" cy="29.2723" r="29.2723"
        transform="matrix(-0.707107 -0.707107 -0.707107 0.707107 724.841 147.493)" fill="#F5EE39" />
    <circle cx="29.2723" cy="29.2723" r="28.2246"
        transform="matrix(-0.707107 -0.707107 -0.707107 0.707107 793.575 82.6265)" stroke="#0094FF"
        stroke-width="2.09545" />
    <circle cx="443.511" cy="387.048" r="3.06978" fill="#96E788" />
    <path
        d="M835.629 387.245L829.58 381.196L823.531 387.245L829.58 393.294L835.629 387.245ZM518.588 388.293L520.81 388.293L520.81 386.197L518.588 386.197L518.588 388.293ZM525.252 388.293L529.695 388.293L529.695 386.197L525.252 386.197L525.252 388.293ZM534.138 388.293L538.581 388.293L538.581 386.197L534.138 386.197L534.138 388.293ZM543.023 388.293L547.466 388.293L547.466 386.197L543.023 386.197L543.023 388.293ZM551.909 388.293L556.352 388.293L556.352 386.197L551.909 386.197L551.909 388.293ZM560.794 388.293L565.237 388.293L565.237 386.197L560.794 386.197L560.794 388.293ZM569.68 388.293L574.123 388.293L574.123 386.197L569.68 386.197L569.68 388.293ZM578.565 388.293L583.008 388.293L583.008 386.197L578.565 386.197L578.565 388.293ZM587.451 388.293L591.894 388.293L591.894 386.197L587.451 386.197L587.451 388.293ZM596.336 388.293L600.779 388.293L600.779 386.197L596.336 386.197L596.336 388.293ZM605.222 388.293L609.665 388.293L609.665 386.197L605.222 386.197L605.222 388.293ZM614.107 388.293L618.55 388.293L618.55 386.197L614.107 386.197L614.107 388.293ZM622.993 388.293L627.435 388.293L627.435 386.197L622.993 386.197L622.993 388.293ZM631.878 388.293L636.321 388.293L636.321 386.197L631.878 386.197L631.878 388.293ZM640.764 388.293L645.206 388.293L645.206 386.197L640.764 386.197L640.764 388.293ZM649.649 388.293L654.092 388.293L654.092 386.197L649.649 386.197L649.649 388.293ZM658.535 388.293L662.977 388.293L662.977 386.197L658.535 386.197L658.535 388.293ZM667.42 388.293L671.863 388.293L671.863 386.197L667.42 386.197L667.42 388.293ZM676.306 388.293L680.748 388.293L680.748 386.197L676.306 386.197L676.306 388.293ZM685.191 388.293L689.634 388.293L689.634 386.197L685.191 386.197L685.191 388.293ZM694.077 388.293L698.519 388.293L698.519 386.197L694.077 386.197L694.077 388.293ZM702.962 388.293L707.405 388.293L707.405 386.197L702.962 386.197L702.962 388.293ZM711.848 388.293L716.29 388.293L716.29 386.197L711.848 386.197L711.848 388.293ZM720.733 388.293L725.176 388.293L725.176 386.197L720.733 386.197L720.733 388.293ZM729.619 388.293L734.061 388.293L734.061 386.197L729.619 386.197L729.619 388.293ZM738.504 388.293L742.947 388.293L742.947 386.197L738.504 386.197L738.504 388.293ZM747.39 388.293L751.832 388.293L751.832 386.197L747.39 386.197L747.39 388.293ZM756.275 388.293L760.718 388.293L760.718 386.197L756.275 386.197L756.275 388.293ZM765.161 388.293L769.603 388.293L769.603 386.197L765.161 386.197L765.161 388.293ZM774.046 388.293L778.489 388.293L778.489 386.197L774.046 386.197L774.046 388.293ZM782.932 388.293L787.374 388.293L787.374 386.197L782.932 386.197L782.932 388.293ZM791.817 388.293L796.26 388.293L796.26 386.197L791.817 386.197L791.817 388.293ZM800.703 388.293L805.145 388.293L805.145 386.197L800.703 386.197L800.703 388.293ZM809.588 388.293L814.031 388.293L814.031 386.197L809.588 386.197L809.588 388.293ZM818.474 388.293L822.916 388.293L822.916 386.197L818.474 386.197L818.474 388.293ZM827.359 388.293L829.58 388.293L829.58 386.197L827.359 386.197L827.359 388.293Z"
        fill="#96E788" />
    <path d="M585.382 499.358L483.664 499.358" stroke="#96E788" stroke-width="1.04772" stroke-linecap="round" />
    <ellipse cx="2.93219" cy="2.9322" rx="2.93219" ry="2.9322" transform="matrix(1 0 0 -1 480.731 502.29)"
        fill="#96E788" />
    <path d="M760.752 387.048C760.752 449.075 710.469 499.358 648.442 499.358H618.736" stroke="#F5EE39"
        stroke-width="1.04772" stroke-linecap="round" />
    <circle cx="4.09304" cy="4.09304" r="4.09304" transform="matrix(1 0 0 -1 756.658 391.141)" fill="#F5EE39" />
    <path d="M697.057 244.952C773.641 276.001 845.735 282.067 872.208 281.219" stroke="#6F5329" stroke-width="1.04772"
        stroke-linecap="round" stroke-dasharray="4.19 4.19" />
    <path d="M885.135 276.87L860.127 285.582" stroke="#0094FF" stroke-width="1.35096" stroke-linecap="round" />
    <path d="M868.272 268.722L876.984 293.73" stroke="#0094FF" stroke-width="1.35096" stroke-linecap="round" />
    <path d="M884.551 286.988L860.707 275.465" stroke="#0094FF" stroke-width="1.35096" stroke-linecap="round" />
    <path d="M878.391 269.304L866.868 293.148" stroke="#0094FF" stroke-width="1.35096" stroke-linecap="round" />
    <path
        d="M583.696 387.246C583.696 464.686 520.919 527.463 443.479 527.463C366.039 527.463 303.261 464.686 303.261 387.246C303.261 309.806 366.039 247.028 443.479 247.028C520.919 247.028 583.696 309.806 583.696 387.246ZM308.059 387.246C308.059 462.036 368.688 522.666 443.479 522.666C518.269 522.666 578.899 462.036 578.899 387.246C578.899 312.455 518.269 251.825 443.479 251.825C368.688 251.825 308.059 312.455 308.059 387.246Z"
        fill="#F5EE39" />
    <path
        d="M699.355 98.224C737.309 131.826 768.274 172.575 790.481 218.144C812.688 263.713 825.701 313.209 828.779 363.808C831.857 414.406 824.939 465.115 808.419 513.04C791.9 560.965 766.102 605.166 732.5 643.121C698.898 681.076 658.149 712.041 612.58 734.247C567.012 756.454 517.515 769.468 466.916 772.546C416.318 775.624 365.609 768.705 317.684 752.186C269.76 735.666 225.558 709.869 187.603 676.267C149.648 642.665 118.684 601.916 96.477 556.347C74.2703 510.778 61.2565 461.281 58.1787 410.683C55.1008 360.084 62.0192 309.375 78.5388 261.451C95.0584 213.526 120.856 169.324 154.458 131.37C188.06 93.4148 228.809 62.4501 274.378 40.2433C319.947 18.0366 369.443 5.02285 420.042 1.94502C470.64 -1.13281 521.349 5.78558 569.274 22.3052C617.198 38.8248 661.4 64.6221 699.355 98.2242L699.355 98.224Z"
        stroke="#0094FF" stroke-width="1.04772" stroke-linecap="round" stroke-dasharray="0.01 12.57" />
    <circle cx="523.894" cy="499.358" r="13.2118" transform="rotate(180 523.894 499.358)" fill="#FFFEF0"
        fill-opacity="0.8" />
    <circle cx="26.6047" cy="26.6047" r="26.6047" transform="matrix(1 0 0 -1 554.482 413.85)" fill="#FFFEF0"
        fill-opacity="0.8" />
    <circle cx="48.3293" cy="48.3293" r="48.3293" transform="matrix(1 0 0 -1 492.616 338.297)" fill="#FFFEF0"
        fill-opacity="0.8" stroke="#FF9900" stroke-opacity="0.2" stroke-width="1.02326" stroke-linecap="round"
        stroke-dasharray="6.14 6.14" />
    <path
        d="M629.742 687.199C629.742 688.906 631.125 690.29 632.832 690.29C634.539 690.29 635.922 688.906 635.922 687.199C635.922 685.493 634.539 684.109 632.832 684.109C631.125 684.109 629.742 685.493 629.742 687.199ZM442.957 443.246L439.611 446.592L442.957 449.937L446.302 446.592L442.957 443.246ZM632.253 747.927C632.253 800.04 590.007 842.286 537.894 842.286V843.445C590.647 843.445 633.412 800.68 633.412 747.927H632.253ZM537.894 842.286C485.782 842.286 443.536 800.04 443.536 747.927H442.377C442.377 800.68 485.142 843.445 537.894 843.445V842.286ZM633.412 747.927V687.199H632.253V747.927H633.412ZM443.536 747.927V446.592H442.377V747.927H443.536Z"
        fill="#6F5329" />
    <path d="M222.136 577.725L275.931 582.743" stroke="#FF9900" stroke-width="1.88708" />
    <path d="M246.527 607.132L251.544 553.336" stroke="#FF9900" stroke-width="1.88708" />
    <path d="M231.789 559.44L266.281 601.027" stroke="#FF9900" stroke-width="1.88708" />
    <path d="M228.241 597.479L269.828 562.988" stroke="#FF9900" stroke-width="1.88708" />
    <path d="M631.893 857.113C488.103 705.038 328.384 615.242 266.499 589.354" stroke="#6F5329" stroke-width="1.15885"
        stroke-linecap="round" />
    <rect x="160.42" y="124.226" width="121.485" height="121.318" transform="rotate(75.7314 160.42 124.226)"
        stroke="#96E788" stroke-width="2.09545" />
    <rect x="156.633" y="130.594" width="121.485" height="121.318" transform="rotate(75.7314 156.633 130.594)"
        stroke="#96E788" stroke-width="2.09545" />
    <path
        d="M488.905 597.262V597.633C486.31 599.784 485.197 603.344 485.197 606.607C485.197 612.689 489.054 617.436 495.358 617.436C499.734 617.436 503.22 614.988 503.22 610.316C503.22 594.518 481.266 588.882 481.266 576.125C481.266 567.967 488.683 565 495.729 565C502.033 565 508.782 567.522 508.782 574.864C508.782 579.537 505.519 584.728 500.475 585.025L500.401 584.802C502.478 582.948 503.071 579.388 503.071 576.718C503.071 571.23 500.475 565.445 494.171 565.445C490.834 565.445 486.68 566.409 486.68 570.562C486.68 584.209 509.598 591.996 509.598 605.569C509.598 614.172 501.514 617.806 494.023 617.806C487.274 617.806 478.596 615.285 478.596 607.052C478.596 601.638 482.75 597.188 488.238 597.188L488.683 597.262C488.757 597.262 488.831 597.262 488.905 597.262Z"
        fill="#6F5329" />
    <path
        d="M518.871 571.527C518.871 569.079 520.948 566.928 523.395 566.928C525.917 566.928 527.993 569.005 527.993 571.527C527.993 574.048 525.991 576.273 523.395 576.273C520.799 576.273 518.871 574.048 518.871 571.527ZM533.482 617.436H514.124V617.139C519.39 617.139 520.28 615.73 520.28 610.835V587.25C520.28 581.687 519.909 580.649 514.124 580.649V580.352H522.95C525.62 580.352 527.326 581.836 527.326 584.58V610.835C527.326 615.73 528.216 617.139 533.482 617.139V617.436Z"
        fill="#6F5329" />
    <path
        d="M553.028 603.344C551.174 603.344 549.245 603.121 547.391 602.676C547.02 602.602 545.092 601.935 545.018 601.935C544.276 601.935 542.645 602.083 542.645 603.196C542.645 607.942 568.677 606.978 568.677 620.625C568.677 629.302 559.48 632.046 552.36 632.046C546.279 632.046 535.673 629.895 535.673 622.108C535.673 615.656 543.016 613.579 548.281 613.579C544.944 612.689 539.456 611.206 539.456 606.904C539.456 604.16 541.681 601.786 544.425 601.638C540.494 599.784 537.453 596.224 537.453 591.7C537.453 583.467 545.982 580.056 553.028 580.056C555.179 580.056 557.255 580.278 559.332 580.872C559.332 577.979 560.519 573.9 564.079 573.9C566.897 573.9 567.935 576.644 567.935 579.017C567.935 579.462 567.935 579.833 567.861 580.278L567.713 580.427C566.749 579.314 565.414 578.721 563.93 578.721C562.225 578.721 560.519 579.314 559.851 581.02C564.598 582.577 568.751 586.36 568.751 591.7C568.751 600.006 560.074 603.344 553.028 603.344ZM552.286 603.047C558.739 603.047 561.705 596.001 561.705 590.513C561.705 585.692 559.48 580.352 553.918 580.352C547.54 580.352 544.425 587.992 544.425 593.406C544.425 598.301 546.798 603.047 552.286 603.047ZM548.652 613.653C544.944 614.024 542.645 617.732 542.645 621.218C542.645 628.115 549.097 631.305 555.179 631.305C559.035 631.305 563.56 629.97 563.56 625.297C563.56 617.213 554.808 615.433 548.652 613.653Z"
        fill="#6F5329" />
    <path
        d="M590.375 617.436H571.018V617.139C576.284 617.139 577.174 615.73 577.174 610.835V587.25C577.174 581.687 576.803 580.649 571.018 580.649V580.352H579.844C582.588 580.352 584.219 581.91 584.219 584.654C586.667 581.762 591.339 580.204 595.048 580.204C600.165 580.204 605.06 583.319 605.06 588.882V610.835C605.06 615.73 605.95 617.139 611.216 617.139V617.436H591.859V617.139C598.014 617.139 598.014 614.098 598.014 608.981V589.104C598.014 585.47 596.234 581.391 592.007 581.391C589.337 581.391 585.925 583.097 584.219 585.173V611.502C584.219 616.101 585.777 617.139 590.375 617.139V617.436Z"
        fill="#6F5329" />
    <path
        d="M511.526 684.185H478.596V683.888C485.271 683.888 484.752 681.218 484.752 675.359V641.095C484.752 635.235 485.271 632.565 478.596 632.565V632.269H507.966C508.56 632.269 509.598 632.343 510.191 632.046H510.265L511.007 646.212H510.71C510.265 639.982 506.705 632.565 499.585 632.565H497.954C491.279 632.565 491.798 635.161 491.798 641.095V654.296H494.542C499.363 654.296 503.071 652.887 503.071 647.399H503.368V661.49H503.071C503.071 654.37 497.138 654.593 491.798 654.593V675.359C491.798 684.185 492.54 683.888 500.846 683.888C507.966 683.888 511.526 676.472 511.971 670.242H512.268L511.526 684.185Z"
        fill="#6F5329" />
    <path
        d="M515.245 684.185V683.888C520.362 683.888 521.401 682.553 521.401 677.584V653.999C521.401 648.956 521.252 647.399 515.69 647.399H515.245V647.102H524.071C526.741 647.102 528.447 648.659 528.447 651.404C530.968 648.511 535.492 646.954 539.275 646.954C544.392 646.954 549.287 650.069 549.287 655.631V672.362V700.201C549.287 711.697 554.701 721.561 567.235 721.561C572.872 721.561 583.181 718.223 583.181 711.252C583.181 697.605 559.077 706.134 559.077 696.789C559.077 694.045 561.302 691.672 564.046 691.523C560.115 689.669 557.075 686.109 557.075 681.585C557.075 673.353 565.604 669.941 572.65 669.941C574.8 669.941 576.877 670.164 578.954 670.757C578.954 667.864 580.14 663.785 583.7 663.785C586.519 663.785 587.557 666.529 587.557 668.903C587.557 669.348 587.557 669.719 587.483 670.164L587.334 670.312C586.37 669.199 585.035 668.606 583.552 668.606C581.846 668.606 580.14 669.199 579.473 670.905C584.219 672.463 588.373 676.245 588.373 681.585C588.373 689.892 579.695 693.229 572.65 693.229C570.795 693.229 568.793 693.081 567.013 692.562C566.716 692.488 564.714 691.82 564.64 691.82C563.898 691.82 562.266 691.968 562.266 693.081C562.266 694.49 564.64 694.935 565.678 695.158C572.872 696.567 588.299 695.973 588.299 706.579C588.299 717.407 575.32 721.932 566.345 721.932C552.699 721.932 542.241 713.847 542.241 699.533V672.362V655.854C542.241 652.219 540.461 648.14 536.234 648.14C533.49 648.14 530.226 649.772 528.447 651.923V677.584C528.447 682.553 529.485 683.888 534.602 683.888V684.185H515.245ZM571.908 692.933C578.36 692.933 581.327 685.887 581.327 680.399C581.327 675.578 579.102 670.238 573.54 670.238C567.161 670.238 564.046 677.877 564.046 683.291C564.046 688.186 566.42 692.933 571.908 692.933Z"
        fill="#6F5329" />
    <path
        d="M611.411 707.321H592.053V707.024C597.319 707.024 598.209 705.615 598.209 700.72V677.135C598.209 671.573 597.838 670.534 592.053 670.534V670.238H600.879C603.549 670.238 605.255 671.721 605.255 674.465V700.72C605.255 705.615 606.145 707.024 611.411 707.024V707.321Z"
        fill="#6F5329" />
    <path
        d="M632.235 707.321H612.878V707.024C618.144 707.024 619.034 705.615 619.034 700.72V677.135C619.034 671.573 618.663 670.534 612.878 670.534V670.238H621.704C624.448 670.238 626.079 671.795 626.079 674.539C628.527 671.647 633.199 670.089 636.908 670.089C642.025 670.089 646.92 673.204 646.92 678.767V700.72C646.92 705.615 647.81 707.024 653.076 707.024V707.321H633.718V707.024C639.874 707.024 639.874 703.983 639.874 698.866V678.989C639.874 675.355 638.094 671.276 633.867 671.276C631.197 671.276 627.785 672.982 626.079 675.059V701.388C626.079 705.986 627.637 707.024 632.235 707.024V707.321Z"
        fill="#6F5329" />
    <path
        d="M683.021 698.569H683.244C682.205 704.354 676.717 707.395 671.229 707.395C660.771 707.395 655.283 698.643 655.283 689.002C655.283 679.583 660.623 670.015 671.08 670.015C677.459 670.015 682.947 673.798 682.947 680.621C682.947 689.669 674.418 694.268 666.334 694.268C665.295 694.268 664.331 694.193 663.367 694.045C664.85 699.904 668.559 705.096 675.085 705.096C679.09 705.096 682.279 702.5 683.021 698.569ZM663.293 693.748C663.738 693.823 664.257 693.823 664.702 693.823C672.638 693.823 676.42 685.59 676.42 678.693C676.42 675.8 675.53 670.312 671.674 670.312C664.554 670.312 662.551 681.585 662.551 686.925C662.551 689.224 662.774 691.523 663.293 693.748Z"
        fill="#6F5329" />
    <path d="M591.858 633.578L610.444 652.164" stroke="#6F5329" stroke-width="0.918031" />
    <path d="M591.858 652.163L610.444 633.577" stroke="#6F5329" stroke-width="0.918031" />
    <path d="M601.152 629.729L601.152 656.013" stroke="#6F5329" stroke-width="0.918031" />
    <path d="M588.009 642.871L614.293 642.871" stroke="#6F5329" stroke-width="0.918031" />
    <rect x="613.105" y="714.057" width="39.5107" height="8.3818" fill="#6F5329" />
</svg>