<svg width="27" height="32" viewBox="0 0 27 32" fill="none" xmlns="http://www.w3.org/2000/svg">
<path d="M6.33056 15.2828L8.99783 9.9482C9.33891 9.26606 10.3124 9.26605 10.6534 9.9482L13.3207 15.2828C13.451 15.5433 13.451 15.85 13.3207 16.1106L10.6534 21.4451C10.3124 22.1273 9.33891 22.1273 8.99784 21.4451L6.33056 16.1106C6.20028 15.85 6.20028 15.5433 6.33056 15.2828Z" stroke="#6F5329" stroke-width="1.33333" stroke-linecap="round"/>
<path d="M13.7349 15.2828L16.4021 9.9482C16.7432 9.26606 17.7167 9.26605 18.0577 9.9482L20.725 15.2828C20.8553 15.5433 20.8553 15.85 20.725 16.1106L18.0577 21.4451C17.7167 22.1273 16.7432 22.1273 16.4021 21.4451L13.7349 16.1106C13.6046 15.85 13.6046 15.5433 13.7349 15.2828Z" stroke="#6F5329" stroke-width="1.33333" stroke-linecap="round"/>
<path d="M10.0327 22.6869L12.7 17.3524C13.0411 16.6702 14.0145 16.6702 14.3556 17.3524L17.0229 22.6869C17.1531 22.9475 17.1531 23.2542 17.0229 23.5147L14.3556 28.8493C14.0145 29.5314 13.0411 29.5314 12.7 28.8493L10.0327 23.5147C9.90243 23.2542 9.90243 22.9475 10.0327 22.6869Z" fill="#6F5329"/>
<path d="M10.0327 7.87907L12.7 2.54451C13.0411 1.86237 14.0145 1.86237 14.3556 2.54451L17.0229 7.87907C17.1531 8.13962 17.1531 8.44631 17.0229 8.70687L14.3556 14.0414C14.0145 14.7236 13.0411 14.7236 12.7 14.0414L10.0327 8.70687C9.90243 8.44631 9.90243 8.13962 10.0327 7.87907Z" stroke="#6F5329" stroke-width="1.33333" stroke-linecap="round"/>
<path d="M20.9319 15.6968V26.8029" stroke="#6F5329" stroke-width="1.33333" stroke-linecap="round"/>
<path d="M6.12361 15.6968V26.8029" stroke="#6F5329" stroke-width="1.33333" stroke-linecap="round"/>
<circle cx="17.2298" cy="15.6969" r="0.925506" fill="#6F5329"/>
</svg>
