<svg width="33" height="32" viewBox="0 0 33 32" fill="none" xmlns="http://www.w3.org/2000/svg">
<path d="M0.854194 13.3359L16.0733 0.650906L31.2923 13.3359L16.0733 26.0209L0.854194 13.3359Z" stroke="#6F5329"/>
<path fill-rule="evenodd" clip-rule="evenodd" d="M3.26959 16L0.854194 18.0132L0.0732574 18.6641L0.854194 19.315L16.0733 32L31.2923 19.315L32.0733 18.6641L31.2923 18.0132L28.8769 16L28.096 16.6509L30.5114 18.6641L16.0733 30.6982L1.63513 18.6641L4.05053 16.6509L3.26959 16Z" fill="#6F5329"/>
<mask id="path-3-inside-1_620_7921" fill="white">
<path fill-rule="evenodd" clip-rule="evenodd" d="M25.8352 13.3358L16.0733 5.19934L6.31133 13.3358L16.0733 21.4724L25.8352 13.3358ZM14.2182 14.882C15.2427 15.7359 16.9038 15.7359 17.9283 14.882C18.9529 14.0281 18.9529 12.6436 17.9283 11.7896C16.9038 10.9357 15.2427 10.9357 14.2182 11.7896C13.1937 12.6436 13.1937 14.0281 14.2182 14.882Z"/>
</mask>
<path fill-rule="evenodd" clip-rule="evenodd" d="M25.8352 13.3358L16.0733 5.19934L6.31133 13.3358L16.0733 21.4724L25.8352 13.3358ZM14.2182 14.882C15.2427 15.7359 16.9038 15.7359 17.9283 14.882C18.9529 14.0281 18.9529 12.6436 17.9283 11.7896C16.9038 10.9357 15.2427 10.9357 14.2182 11.7896C13.1937 12.6436 13.1937 14.0281 14.2182 14.882Z" fill="#6F5329"/>
<path d="M16.0733 5.19934L16.7135 4.43118L16.0733 3.89753L15.433 4.43118L16.0733 5.19934ZM25.8352 13.3358L26.4754 14.104L27.3971 13.3358L26.4754 12.5677L25.8352 13.3358ZM6.31133 13.3358L5.67108 12.5677L4.74946 13.3358L5.67108 14.104L6.31133 13.3358ZM16.0733 21.4724L15.433 22.2405L16.0733 22.7742L16.7135 22.2405L16.0733 21.4724ZM17.9283 14.882L17.2881 14.1138L17.2881 14.1138L17.9283 14.882ZM14.2182 14.882L14.8585 14.1138L14.8585 14.1138L14.2182 14.882ZM17.9283 11.7896L18.5686 11.0215L18.5686 11.0215L17.9283 11.7896ZM14.2182 11.7896L13.5779 11.0215L13.5779 11.0215L14.2182 11.7896ZM15.433 5.9675L25.1949 14.104L26.4754 12.5677L16.7135 4.43118L15.433 5.9675ZM6.95159 14.104L16.7135 5.9675L15.433 4.43118L5.67108 12.5677L6.95159 14.104ZM16.7135 20.7042L6.95159 12.5677L5.67108 14.104L15.433 22.2405L16.7135 20.7042ZM25.1949 12.5677L15.433 20.7042L16.7135 22.2405L26.4754 14.104L25.1949 12.5677ZM17.2881 14.1138C16.6344 14.6587 15.5121 14.6587 14.8585 14.1138L13.5779 15.6502C14.9733 16.8132 17.1732 16.8132 18.5686 15.6502L17.2881 14.1138ZM17.2881 12.5578C17.5894 12.809 17.6967 13.0944 17.6967 13.3358C17.6967 13.5772 17.5894 13.8627 17.2881 14.1138L18.5686 15.6502C19.2918 15.0474 19.6967 14.2137 19.6967 13.3358C19.6967 12.458 19.2918 11.6242 18.5686 11.0215L17.2881 12.5578ZM14.8585 12.5578C15.5121 12.013 16.6344 12.013 17.2881 12.5578L18.5686 11.0215C17.1732 9.85841 14.9733 9.85841 13.5779 11.0215L14.8585 12.5578ZM14.8585 14.1138C14.5571 13.8627 14.4498 13.5772 14.4498 13.3358C14.4498 13.0944 14.5571 12.809 14.8585 12.5578L13.5779 11.0215C12.8548 11.6242 12.4498 12.458 12.4498 13.3358C12.4498 14.2137 12.8548 15.0474 13.5779 15.6502L14.8585 14.1138Z" fill="#6F5329" mask="url(#path-3-inside-1_620_7921)"/>
</svg>
